<svg width="112" height="112" viewBox="0 0 112 112" fill="none" xmlns="http://www.w3.org/2000/svg">
<rect x="0.5" y="0.5" width="111" height="111" rx="11.5" stroke="#303030"/>
<path d="M45.2445 63.2585L42.6666 82.6667L54.9024 75.3253C55.3015 75.0858 55.501 74.9661 55.714 74.9193C55.9024 74.878 56.0976 74.878 56.286 74.9193C56.499 74.9661 56.6985 75.0858 57.0976 75.3253L69.3333 82.6667L66.7581 63.2567M74.6666 48C74.6666 58.3094 66.3093 66.6667 56 66.6667C45.6907 66.6667 37.3333 58.3094 37.3333 48C37.3333 37.6907 45.6907 29.3334 56 29.3334C66.3093 29.3334 74.6666 37.6907 74.6666 48Z" stroke="#8C8C8C" stroke-linecap="round" stroke-linejoin="round"/>
</svg>
