<svg width="112" height="112" viewBox="0 0 112 112" fill="none" xmlns="http://www.w3.org/2000/svg">
<rect x="0.5" y="0.5" width="111" height="111" rx="11.5" stroke="#303030"/>
<path d="M56 42.6667H44C42.2319 42.6667 40.5362 41.9643 39.286 40.7141C38.0357 39.4638 37.3333 37.7682 37.3333 36C37.3333 34.2319 38.0357 32.5362 39.286 31.286C40.5362 30.0358 42.2319 29.3334 44 29.3334C53.3333 29.3334 56 42.6667 56 42.6667ZM56 42.6667H68C69.7681 42.6667 71.4638 41.9643 72.7141 40.7141C73.9643 39.4638 74.6667 37.7682 74.6667 36C74.6667 34.2319 73.9643 32.5362 72.7141 31.286C71.4638 30.0358 69.7681 29.3334 68 29.3334C58.6667 29.3334 56 42.6667 56 42.6667ZM56 42.6667L56 82.6667M29.3333 61.3334H82.6667M29.3333 51.2L29.3333 74.1334C29.3333 77.1203 29.3333 78.6138 29.9146 79.7547C30.426 80.7582 31.2419 81.5741 32.2454 82.0854C33.3863 82.6667 34.8797 82.6667 37.8667 82.6667L74.1333 82.6667C77.1203 82.6667 78.6138 82.6667 79.7546 82.0854C80.7582 81.5741 81.5741 80.7582 82.0854 79.7547C82.6667 78.6138 82.6667 77.1203 82.6667 74.1334V51.2C82.6667 48.2131 82.6667 46.7196 82.0854 45.5788C81.5741 44.5752 80.7582 43.7593 79.7546 43.248C78.6138 42.6667 77.1203 42.6667 74.1333 42.6667L37.8667 42.6667C34.8797 42.6667 33.3863 42.6667 32.2454 43.248C31.2419 43.7593 30.426 44.5752 29.9146 45.5788C29.3333 46.7196 29.3333 48.2131 29.3333 51.2Z" stroke="#8C8C8C" stroke-linecap="round" stroke-linejoin="round"/>
</svg>
