<svg width="432" height="150" viewBox="0 0 432 150" fill="none" xmlns="http://www.w3.org/2000/svg">
<g clip-path="url(#clip0_414_5322)">
<rect width="432" height="150" fill="#181818"/>
<path d="M184 69.6665H205.333M194.667 58.9998V80.3332M232 74.9998H232.053M248 64.3332H248.053M207.728 37.6665H224.272C238.272 37.6665 245.271 37.6665 250.765 40.3195C255.603 42.6553 259.622 46.3976 262.297 51.0563C265.334 56.3476 265.833 63.3295 266.83 77.2933L268.143 95.6639C268.786 104.671 261.652 112.333 252.621 112.333C248.003 112.333 243.624 110.282 240.667 106.734L238.667 104.333C236.837 102.137 235.921 101.039 234.879 100.152C232.695 98.2914 230.051 97.0529 227.223 96.5656C225.874 96.3332 224.445 96.3332 221.586 96.3332H210.414C207.555 96.3332 206.125 96.3332 204.777 96.5656C201.949 97.0529 199.305 98.2914 197.12 100.152C196.079 101.039 195.163 102.137 193.333 104.333L191.332 106.734C188.376 110.282 183.996 112.333 179.378 112.333C170.348 112.333 163.214 104.671 163.857 95.6639L165.169 77.2933C166.167 63.3295 166.666 56.3476 169.703 51.0563C172.378 46.3976 176.397 42.6553 181.234 40.3195C186.729 37.6665 193.728 37.6665 207.728 37.6665Z" stroke="#8C8C8C" stroke-linecap="round" stroke-linejoin="round"/>
</g>
<defs>
<clipPath id="clip0_414_5322">
<rect width="432" height="150" fill="white"/>
</clipPath>
</defs>
</svg>
