<svg width="110" height="81" viewBox="0 0 110 81" fill="none" xmlns="http://www.w3.org/2000/svg">
<rect x="0.5" y="1.18164" width="109" height="79" rx="11.5" stroke="#303030"/>
<path d="M39 38.0151H49.6667M44.3333 32.6818V43.3485M63 40.6818H63.0267M71 35.3485H71.0267M50.8639 22.0151H59.1361C66.1358 22.0151 69.6357 22.0151 72.3828 23.3416C74.8015 24.5095 76.8111 26.3807 78.1484 28.7101C79.6672 31.3557 79.9166 34.8466 80.4153 41.8285L81.0714 51.0138C81.393 55.5176 77.826 59.3485 73.3108 59.3485C71.0018 59.3485 68.812 58.3228 67.3338 56.549L66.3333 55.3485C65.4183 54.2504 64.9607 53.7013 64.4397 53.2577C63.3475 52.3276 62.0254 51.7083 60.6117 51.4647C59.9373 51.3485 59.2226 51.3485 57.7932 51.3485H52.2069C50.7774 51.3485 50.0627 51.3485 49.3884 51.4647C47.9747 51.7083 46.6525 52.3276 45.5603 53.2577C45.0393 53.7013 44.5818 54.2504 43.6667 55.3485L42.6663 56.549C41.188 58.3228 38.9983 59.3485 36.6892 59.3485C32.174 59.3485 28.607 55.5176 28.9287 51.0138L29.5848 41.8285C30.0835 34.8466 30.3328 31.3557 31.8517 28.7101C33.1889 26.3807 35.1985 24.5095 37.6172 23.3416C40.3643 22.0151 43.8642 22.0151 50.8639 22.0151Z" stroke="#8C8C8C" stroke-linecap="round" stroke-linejoin="round"/>
</svg>
