<svg width="151" height="150" viewBox="0 0 151 150" fill="none" xmlns="http://www.w3.org/2000/svg">
<rect x="1" y="0.5" width="149" height="149" rx="11.5" stroke="#303030"/>
<path d="M111.417 55.3244L75.9999 75.0003M75.9999 75.0003L40.5832 55.3244M75.9999 75.0003L76 114.584M113.5 91.9111V58.0898C113.5 56.6621 113.5 55.9483 113.29 55.3116C113.104 54.7484 112.799 54.2314 112.397 53.7952C111.943 53.3021 111.319 52.9554 110.071 52.2621L79.2376 35.1324C78.0559 34.476 77.4651 34.1477 76.8394 34.019C76.2856 33.9051 75.7144 33.9051 75.1606 34.019C74.5349 34.1477 73.9441 34.476 72.7624 35.1324L41.929 52.2621C40.681 52.9554 40.057 53.3021 39.6026 53.7952C39.2007 54.2314 38.8964 54.7484 38.7104 55.3116C38.5 55.9483 38.5 56.6621 38.5 58.0898V91.9111C38.5 93.3388 38.5 94.0526 38.7104 94.6893C38.8964 95.2525 39.2007 95.7695 39.6026 96.2057C40.057 96.6988 40.681 97.0454 41.9291 97.7388L72.7624 114.868C73.9441 115.525 74.5349 115.853 75.1606 115.982C75.7144 116.096 76.2856 116.096 76.8394 115.982C77.4651 115.853 78.0559 115.525 79.2376 114.868L110.071 97.7388C111.319 97.0454 111.943 96.6988 112.397 96.2057C112.799 95.7695 113.104 95.2525 113.29 94.6893C113.5 94.0526 113.5 93.3388 113.5 91.9111Z" stroke="#8C8C8C" stroke-linecap="round" stroke-linejoin="round"/>
<path d="M94.75 64.5833L57.25 43.75" stroke="black" stroke-width="2" stroke-linecap="round" stroke-linejoin="round"/>
</svg>
