<svg width="40" height="68" viewBox="0 0 40 68" fill="none" xmlns="http://www.w3.org/2000/svg">
<path d="M16.9322 18.929C11.3728 19.0561 6.75006 22.6045 5.24273 27.4748C5.01509 26.5456 4.81899 23.6616 5.28118 22.8424C6.4186 20.823 10.3661 17.8496 15.3318 18.0059C16.5184 18.0421 18.8502 18.504 19.0909 18.9721C19.1209 19.0299 17.9143 18.9067 16.9322 18.929Z" fill="white"/>
<path d="M34.7362 37.4579L34.717 37.4502C34.7084 37.4448 34.6991 37.4409 34.6893 37.4386C34.6783 37.4375 34.6675 37.4352 34.657 37.4317C34.6444 37.4309 34.6318 37.4309 34.6193 37.4317C34.607 37.4317 34.5947 37.4317 34.5801 37.4317H34.5385H34.4947C34.4809 37.4317 34.4647 37.4379 34.4493 37.4394C34.4186 37.4471 34.3886 37.451 34.357 37.461C34.2922 37.48 34.2288 37.5034 34.1671 37.531C34.1021 37.558 34.0389 37.5891 33.9779 37.6242C33.9135 37.6576 33.8509 37.6944 33.7903 37.7343L33.608 37.8559L33.4303 37.9914L33.3411 38.0599L33.2558 38.1323L33.0835 38.2786C32.9697 38.3787 32.862 38.4849 32.7497 38.5866L32.4098 38.9061C32.296 39.0123 32.1791 39.1116 32.0591 39.214C31.5848 39.6154 31.0789 39.9779 30.5464 40.298C30.2827 40.4597 30.0081 40.606 29.7343 40.7453C29.4584 40.8841 29.1747 41.0067 28.8845 41.1126C29.1657 40.9878 29.4394 40.847 29.7043 40.6907C29.9689 40.5367 30.2288 40.3719 30.4788 40.1941C30.9806 39.8446 31.4535 39.4553 31.893 39.03C32.0015 38.9222 32.1122 38.8183 32.2153 38.7067L32.5283 38.371C32.6352 38.2578 32.739 38.14 32.8497 38.0299L33.0189 37.8652L33.1043 37.7828L33.1935 37.7058L33.3727 37.5518L33.5657 37.4048C33.6305 37.3557 33.6977 37.3099 33.7672 37.2677C33.8371 37.2212 33.9098 37.1791 33.9848 37.1415C34.0996 37.085 34.2186 37.0379 34.3409 37.0006C34.3435 36.9996 34.3458 36.998 34.3475 36.9959C34.3493 36.9938 34.3505 36.9913 34.3511 36.9886C34.3516 36.9859 34.3515 36.9831 34.3506 36.9805C34.3498 36.9779 34.3483 36.9755 34.3463 36.9736C32.769 35.5008 31.9576 37.17 29.3044 37.2046C29.0129 37.2084 28.7215 37.1917 28.4323 37.1546L28.3877 37.1492C26.6497 36.9182 24.4825 35.9874 23.4812 35.2244C22.9521 34.8187 22.5315 34.4622 22.2254 34.2744C22.1224 34.2007 22.0021 34.1548 21.8762 34.1412C21.3458 34.1498 20.8163 34.1896 20.2905 34.2605L13.5029 34.2336C13.2859 34.2342 13.0715 34.2797 12.8729 34.3673C12.6744 34.4548 12.4961 34.5826 12.3493 34.7425C12.2334 34.8713 12.0963 34.9793 11.944 35.062C11.712 35.1837 11.453 35.2446 11.1911 35.2391C10.7951 35.2391 10.2221 35.0604 9.7438 34.212C9.45002 33.6893 9.23008 32.9671 9.10703 32.1218C8.91503 30.7198 8.97782 29.2947 9.29237 27.9151C9.67689 26.3222 10.3829 25.2736 11.325 24.8863C12.7546 24.2966 13.7567 24.777 14.7241 25.2405C15.4932 25.6108 16.2922 25.9934 17.4604 25.9934C18.6286 25.9934 19.4261 25.6085 20.1974 25.2405C21.1649 24.7785 22.1654 24.2966 23.5966 24.8863C24.5394 25.2713 25.2408 26.3222 25.6292 27.9151C25.9443 29.2946 26.0068 30.7199 25.8137 32.1218C25.6915 32.9686 25.4715 33.6893 25.177 34.212C25.0604 34.425 24.9146 34.6207 24.744 34.7933C24.7223 34.8133 24.7053 34.8379 24.6943 34.8654C24.6832 34.8928 24.6785 34.9223 24.6803 34.9519C24.6822 34.9814 24.6906 35.0101 24.7049 35.0359C24.7192 35.0618 24.7392 35.0841 24.7632 35.1012C25.4246 35.5763 26.5559 36.0729 27.5933 36.3685C27.824 36.4355 28.0547 36.4901 28.2739 36.5332L28.2947 36.5386C28.4208 36.5625 28.5446 36.5848 28.6607 36.601L28.6646 36.5941L28.7076 36.5987C29.4816 36.6663 30.2614 36.6038 31.0148 36.4139C30.7441 34.7032 30.0342 33.1858 29.7666 32.7615C29.7434 32.7206 29.715 32.6828 29.682 32.6491C29.407 33.0627 29.0569 33.421 28.65 33.7054C29.4675 32.5167 29.995 32.1826 29.7359 30.1516C29.473 27.5994 28.4213 25.1928 26.7274 23.2674C25.0334 21.3419 22.7816 19.9935 20.2859 19.4101L20.2328 19.3977L20.1059 19.3693C20.0421 19.3562 19.979 19.3423 19.9152 19.33L19.6845 19.2861L19.6483 19.28C19.566 19.2653 19.4822 19.2515 19.3984 19.2384C19.3415 19.2299 19.2838 19.2207 19.2261 19.2137C19.1684 19.2068 19.1238 19.1991 19.0723 19.193L18.9185 19.1737C18.8154 19.1622 18.7116 19.1521 18.6109 19.1421L18.4571 19.1291C18.1418 19.1044 17.8234 19.0921 17.5019 19.0921C15.6511 19.0882 13.8234 19.5044 12.1563 20.3093C12.022 20.374 11.8887 20.4415 11.7564 20.5118C11.6687 20.5587 11.5818 20.6065 11.4941 20.655L11.3826 20.7189C11.1545 20.8498 10.9302 20.9883 10.7097 21.1346L10.5674 21.2332C10.5221 21.264 10.4767 21.2948 10.4321 21.3271C10.3875 21.3594 10.336 21.3948 10.2883 21.4295C9.36769 22.0956 8.54343 22.8858 7.83888 23.7777C7.84426 23.7692 7.84811 23.7607 7.85349 23.7523C7.02657 24.7907 6.3729 25.9562 5.91781 27.2037H5.92857C5.92473 27.2129 5.92165 27.2245 5.91781 27.2345C5.91396 27.2445 5.8955 27.2737 5.88166 27.3038C5.85362 27.3675 5.83099 27.4334 5.81398 27.5009C5.80552 27.5317 5.79783 27.5663 5.79091 27.6025C4.78392 30.7116 5.05125 34.0937 6.53412 37.0056C8.017 39.9175 10.5941 42.1208 13.699 43.1312C15.364 40.5513 17.8649 39.2179 20.0982 38.2986C17.4665 39.8615 17.6519 41.3535 18.4686 42.707C18.0018 42.4268 17.1405 41.1672 17.1405 41.1672C17.1405 41.1672 15.9438 41.5622 14.6134 43.3891C14.6034 43.403 14.5934 43.4161 14.5842 43.4299C14.2343 43.9195 13.921 44.4341 13.6467 44.9697C13.2499 48.7715 19.726 50.6839 18.8408 49.4243C17.9556 48.1648 19.5199 43.8619 19.5199 43.8619C19.5199 43.8619 20.2159 45.1268 23.2943 45.1091C26.3728 45.0914 30.1634 43.637 31.8123 42.5392C32.7321 41.9256 35.6306 39.1717 34.7362 37.4579ZM26.3428 40.037C26.2128 40.107 26.0635 40.1322 25.9177 40.109C25.7719 40.0858 25.6378 40.0153 25.5359 39.9085C25.4339 39.8016 25.3698 39.6642 25.3534 39.5173C25.337 39.3705 25.3692 39.2223 25.445 39.0955C25.5208 38.9687 25.636 38.8703 25.773 38.8154C25.9101 38.7605 26.0613 38.7521 26.2036 38.7915C26.3458 38.8309 26.4712 38.9159 26.5606 39.0336C26.6499 39.1512 26.6982 39.2949 26.6981 39.4427C26.6987 39.5403 26.6774 39.6369 26.6358 39.7252C26.5747 39.8583 26.4718 39.9678 26.3428 40.037Z" fill="white"/>
<path d="M26.6967 39.4434C26.6969 39.5773 26.6573 39.7083 26.5831 39.8197C26.5089 39.9311 26.4033 40.018 26.2798 40.0693C26.1562 40.1206 26.0202 40.134 25.889 40.108C25.7578 40.0819 25.6373 40.0174 25.5427 39.9227C25.4481 39.828 25.3837 39.7074 25.3577 39.576C25.3316 39.4447 25.3451 39.3086 25.3963 39.1849C25.4476 39.0612 25.5344 38.9555 25.6456 38.8812C25.7569 38.8069 25.8877 38.7673 26.0215 38.7675C26.2006 38.7675 26.3723 38.8387 26.4989 38.9654C26.6256 39.0922 26.6967 39.2641 26.6967 39.4434Z" fill="black"/>
<path d="M21.1095 30.3087C21.4115 30.3087 21.6563 30.0636 21.6563 29.7613C21.6563 29.459 21.4115 29.2139 21.1095 29.2139C20.8076 29.2139 20.5627 29.459 20.5627 29.7613C20.5627 30.0636 20.8076 30.3087 21.1095 30.3087Z" fill="white"/>
<path d="M23.0575 30.3087C23.3595 30.3087 23.6043 30.0636 23.6043 29.7613C23.6043 29.459 23.3595 29.2139 23.0575 29.2139C22.7555 29.2139 22.5107 29.459 22.5107 29.7613C22.5107 30.0636 22.7555 30.3087 23.0575 30.3087Z" fill="white"/>
<path d="M22.0832 29.334C22.3852 29.334 22.63 29.0889 22.63 28.7866C22.63 28.4843 22.3852 28.2392 22.0832 28.2392C21.7812 28.2392 21.5364 28.4843 21.5364 28.7866C21.5364 29.0889 21.7812 29.334 22.0832 29.334Z" fill="white"/>
<path d="M22.0832 31.2841C22.3852 31.2841 22.63 31.039 22.63 30.7367C22.63 30.4344 22.3852 30.1893 22.0832 30.1893C21.7812 30.1893 21.5364 30.4344 21.5364 30.7367C21.5364 31.039 21.7812 31.2841 22.0832 31.2841Z" fill="white"/>
<path d="M13.7743 29.2146H13.3467V28.7866C13.3495 28.713 13.3374 28.6397 13.3112 28.5709C13.285 28.5021 13.2452 28.4393 13.1942 28.3863C13.1431 28.3333 13.082 28.2911 13.0143 28.2623C12.9466 28.2335 12.8739 28.2187 12.8003 28.2187C12.7268 28.2187 12.654 28.2335 12.5864 28.2623C12.5187 28.2911 12.4575 28.3333 12.4065 28.3863C12.3555 28.4393 12.3157 28.5021 12.2895 28.5709C12.2633 28.6397 12.2512 28.713 12.2539 28.7866V29.2146H11.8263C11.685 29.2199 11.5512 29.2799 11.453 29.3819C11.3549 29.4839 11.3 29.62 11.3 29.7616C11.3 29.9033 11.3549 30.0394 11.453 30.1414C11.5512 30.2434 11.685 30.3033 11.8263 30.3087H12.2539V30.7367C12.2592 30.8782 12.3191 31.0122 12.421 31.1104C12.5229 31.2087 12.6589 31.2636 12.8003 31.2636C12.9418 31.2636 13.0778 31.2087 13.1797 31.1104C13.2815 31.0122 13.3414 30.8782 13.3467 30.7367V30.3087H13.7743C13.8478 30.3114 13.9211 30.2993 13.9898 30.2731C14.0585 30.2468 14.1212 30.207 14.1741 30.1559C14.2271 30.1048 14.2692 30.0436 14.298 29.9759C14.3268 29.9081 14.3416 29.8353 14.3416 29.7616C14.3416 29.688 14.3268 29.6152 14.298 29.5474C14.2692 29.4797 14.2271 29.4185 14.1741 29.3674C14.1212 29.3163 14.0585 29.2765 13.9898 29.2502C13.9211 29.224 13.8478 29.2119 13.7743 29.2146Z" fill="white"/>
</svg>
