<svg width="44" height="46" viewBox="0 0 44 46" fill="none" xmlns="http://www.w3.org/2000/svg">
<g clip-path="url(#clip0_288_852)">
<path d="M17.2567 1.34407C9.2168 1.52778 2.53155 6.65943 0.351701 13.7028C0.0224988 12.3589 -0.261104 8.18812 0.407309 7.00347C2.05221 4.08303 7.76097 -0.216911 14.9423 0.00910888C16.6583 0.0614385 20.0304 0.729477 20.3785 1.40642C20.4219 1.48993 18.6769 1.31178 17.2567 1.34407Z" fill="white"/>
<path d="M43.0043 28.14L42.9765 28.1289C42.9642 28.1211 42.9506 28.1155 42.9365 28.1122C42.9206 28.1105 42.9049 28.1071 42.8897 28.1021C42.8716 28.101 42.8534 28.101 42.8352 28.1021C42.8175 28.1021 42.7997 28.1021 42.7785 28.1021H42.7185H42.6551C42.6351 28.1021 42.6117 28.111 42.5895 28.1133C42.545 28.1244 42.5016 28.13 42.456 28.1444C42.3623 28.172 42.2705 28.2058 42.1813 28.2458C42.0873 28.2848 41.9959 28.3298 41.9077 28.3805C41.8145 28.4288 41.724 28.482 41.6363 28.5397L41.3727 28.7156L41.1158 28.9116L40.9868 29.0107L40.8634 29.1153L40.6142 29.3269C40.4496 29.4716 40.2939 29.6253 40.1316 29.7722L39.64 30.2343C39.4754 30.3879 39.3063 30.5316 39.1328 30.6796C38.4468 31.2601 37.7152 31.7843 36.9452 32.2473C36.5637 32.4811 36.1667 32.6927 35.7707 32.8942C35.3717 33.0949 34.9614 33.2722 34.5418 33.4253C34.9484 33.2449 35.3442 33.0412 35.7274 32.8151C36.11 32.5925 36.4859 32.3542 36.8473 32.097C37.573 31.5916 38.257 31.0286 38.8926 30.4135C39.0494 30.2577 39.2096 30.1074 39.3586 29.9459L39.8113 29.4605C39.9659 29.2968 40.116 29.1265 40.2761 28.9672L40.5208 28.729L40.6443 28.6098L40.7733 28.4985L41.0324 28.2758L41.3116 28.0632C41.4053 27.9922 41.5025 27.926 41.603 27.865C41.7041 27.7978 41.8092 27.7368 41.9177 27.6824C42.0836 27.6008 42.2558 27.5326 42.4326 27.4786C42.4364 27.4772 42.4397 27.4749 42.4422 27.4719C42.4448 27.4689 42.4466 27.4652 42.4474 27.4613C42.4481 27.4574 42.4479 27.4534 42.4467 27.4496C42.4455 27.4458 42.4433 27.4424 42.4404 27.4397C40.1594 25.3097 38.986 27.7236 35.149 27.7737C34.7275 27.7792 34.306 27.755 33.8878 27.7013L33.8233 27.6935C31.3098 27.3595 28.1757 26.0134 26.7277 24.91C25.9625 24.3233 25.3542 23.8078 24.9115 23.5361C24.7625 23.4295 24.5886 23.3632 24.4066 23.3435C23.6394 23.3559 22.8737 23.4135 22.1133 23.5161L12.2973 23.4771C11.9836 23.4779 11.6734 23.5438 11.3863 23.6704C11.0992 23.7971 10.8414 23.9818 10.629 24.213C10.4613 24.3993 10.2631 24.5556 10.0429 24.6751C9.70741 24.8511 9.33283 24.9392 8.95412 24.9312C8.38135 24.9312 7.55278 24.6729 6.86101 23.4459C6.43617 22.6899 6.11809 21.6455 5.94014 20.423C5.66247 18.3956 5.75328 16.3346 6.20817 14.3394C6.76426 12.0358 7.78523 10.5194 9.14764 9.95933C11.2152 9.10647 12.6643 9.80123 14.0634 10.4715C15.1756 11.007 16.3311 11.5604 18.0205 11.5604C19.7099 11.5604 20.8632 11.0037 21.9787 10.4715C23.3778 9.80345 24.8248 9.10647 26.8945 9.95933C28.258 10.516 29.2723 12.0358 29.834 14.3394C30.2897 16.3345 30.3801 18.3957 30.1009 20.423C29.9241 21.6478 29.606 22.6899 29.18 23.4459C29.0114 23.7539 28.8007 24.0369 28.5539 24.2865C28.5224 24.3155 28.4979 24.3511 28.4819 24.3908C28.466 24.4304 28.4591 24.4732 28.4618 24.5158C28.4644 24.5585 28.4766 24.6001 28.4973 24.6374C28.5181 24.6748 28.5469 24.7071 28.5817 24.7319C29.5381 25.4188 31.1742 26.137 32.6745 26.5645C33.0081 26.6614 33.3418 26.7404 33.6587 26.8028L33.6888 26.8106C33.8712 26.8451 34.0502 26.8774 34.2182 26.9008L34.2237 26.8908L34.286 26.8974C35.4053 26.9952 36.533 26.9049 37.6225 26.6302C37.231 24.1563 36.2045 21.9618 35.8175 21.3483C35.7839 21.289 35.7427 21.2344 35.6951 21.1857C35.2973 21.7838 34.7911 22.3019 34.2026 22.7133C35.3848 20.9942 36.1478 20.511 35.773 17.5739C35.3928 13.8829 33.8719 10.4026 31.4222 7.61808C28.9724 4.83355 25.716 2.8835 22.1066 2.03974L22.0299 2.02192L21.8464 1.98073C21.7541 1.9618 21.6629 1.94176 21.5706 1.92394L21.2369 1.86048L21.1846 1.85157C21.0656 1.83042 20.9444 1.81038 20.8232 1.79145C20.7409 1.7792 20.6575 1.76584 20.5741 1.75582C20.4907 1.7458 20.4261 1.73467 20.3516 1.72576L20.1292 1.69792C19.9802 1.68122 19.83 1.66675 19.6843 1.65227L19.4619 1.63335C19.0059 1.59772 18.5455 1.5799 18.0806 1.5799C15.4039 1.57432 12.7608 2.17616 10.3499 3.34018C10.1556 3.43371 9.96286 3.53132 9.77156 3.63301C9.64477 3.70092 9.5191 3.76996 9.39231 3.8401L9.23105 3.93251C8.9011 4.12179 8.57672 4.3222 8.2579 4.53375L8.05215 4.67626C7.98653 4.7208 7.92091 4.76533 7.85641 4.81209C7.7919 4.85886 7.71738 4.91007 7.64843 4.96018C6.3171 5.92342 5.12508 7.06618 4.10617 8.35604C4.11396 8.34379 4.11952 8.33154 4.1273 8.3193C2.93143 9.82107 1.98611 11.5066 1.32797 13.3107H1.34354C1.33798 13.324 1.33353 13.3407 1.32797 13.3552C1.32241 13.3697 1.29572 13.412 1.2757 13.4554C1.23516 13.5475 1.20242 13.6428 1.17783 13.7404C1.1656 13.785 1.15447 13.8351 1.14446 13.8874C-0.311815 18.3837 0.0747785 23.2749 2.21928 27.4859C4.36377 31.697 8.09069 34.8833 12.5809 36.3446C14.9887 32.6136 18.6055 30.6852 21.8353 29.3558C18.0294 31.616 18.2975 33.7738 19.4786 35.7311C18.8035 35.3259 17.5579 33.5043 17.5579 33.5043C17.5579 33.5043 15.8273 34.0755 13.9033 36.7176C13.8888 36.7376 13.8744 36.7566 13.861 36.7766C13.3551 37.4846 12.902 38.2288 12.5053 39.0034C11.9314 44.5014 21.297 47.267 20.0169 45.4455C18.7368 43.624 20.9989 37.4012 20.9989 37.4012C20.9989 37.4012 22.0054 39.2305 26.4574 39.2049C30.9095 39.1793 36.3913 37.0761 38.7758 35.4884C40.106 34.601 44.2978 30.6184 43.0043 28.14ZM30.8661 31.8699C30.678 31.971 30.462 32.0076 30.2512 31.974C30.0404 31.9404 29.8464 31.8385 29.699 31.6839C29.5516 31.5294 29.459 31.3307 29.4352 31.1183C29.4115 30.9059 29.458 30.6916 29.5676 30.5082C29.6772 30.3249 29.8439 30.1826 30.042 30.1031C30.2402 30.0237 30.4589 30.0116 30.6647 30.0686C30.8704 30.1256 31.0518 30.2486 31.181 30.4187C31.3102 30.5888 31.38 30.7966 31.3799 31.0103C31.3807 31.1516 31.3499 31.2912 31.2898 31.4189C31.2014 31.6114 31.0526 31.7697 30.8661 31.8699Z" fill="white"/>
<path d="M31.3776 31.0114C31.3778 31.2051 31.3207 31.3945 31.2133 31.5556C31.106 31.7167 30.9533 31.8423 30.7746 31.9165C30.596 31.9907 30.3993 32.0102 30.2096 31.9725C30.0198 31.9347 29.8455 31.8415 29.7088 31.7046C29.572 31.5676 29.4788 31.3932 29.4412 31.2032C29.4035 31.0133 29.4229 30.8164 29.4971 30.6375C29.5712 30.4586 29.6967 30.3058 29.8576 30.1983C30.0185 30.0909 30.2077 30.0337 30.4011 30.0339C30.6601 30.0339 30.9085 30.1369 31.0916 30.3202C31.2747 30.5035 31.3776 30.7522 31.3776 31.0114Z" fill="black"/>
<path d="M23.2977 17.801C23.7344 17.801 24.0885 17.4466 24.0885 17.0094C24.0885 16.5722 23.7344 16.2177 23.2977 16.2177C22.861 16.2177 22.507 16.5722 22.507 17.0094C22.507 17.4466 22.861 17.801 23.2977 17.801Z" fill="white"/>
<path d="M26.1148 17.801C26.5516 17.801 26.9056 17.4466 26.9056 17.0094C26.9056 16.5722 26.5516 16.2177 26.1148 16.2177C25.6781 16.2177 25.3241 16.5722 25.3241 17.0094C25.3241 17.4466 25.6781 17.801 26.1148 17.801Z" fill="white"/>
<path d="M24.7057 16.3914C25.1425 16.3914 25.4965 16.037 25.4965 15.5998C25.4965 15.1626 25.1425 14.8082 24.7057 14.8082C24.269 14.8082 23.915 15.1626 23.915 15.5998C23.915 16.037 24.269 16.3914 24.7057 16.3914Z" fill="white"/>
<path d="M24.7057 19.2117C25.1425 19.2117 25.4965 18.8572 25.4965 18.42C25.4965 17.9828 25.1425 17.6284 24.7057 17.6284C24.269 17.6284 23.915 17.9828 23.915 18.42C23.915 18.8572 24.269 19.2117 24.7057 19.2117Z" fill="white"/>
<path d="M12.6899 16.2189H12.0715V15.5998C12.0755 15.4934 12.058 15.3873 12.0201 15.2879C11.9822 15.1884 11.9246 15.0976 11.8508 15.021C11.7771 14.9443 11.6886 14.8833 11.5907 14.8416C11.4929 14.8 11.3876 14.7785 11.2813 14.7785C11.175 14.7785 11.0697 14.8 10.9719 14.8416C10.874 14.8833 10.7855 14.9443 10.7118 15.021C10.638 15.0976 10.5804 15.1884 10.5425 15.2879C10.5046 15.3873 10.4871 15.4934 10.4911 15.5998V16.2189H9.87274C9.66829 16.2265 9.47478 16.3132 9.33285 16.4608C9.19093 16.6083 9.11163 16.8051 9.11163 17.0099C9.11163 17.2147 9.19093 17.4116 9.33285 17.5591C9.47478 17.7066 9.66829 17.7933 9.87274 17.801H10.4911V18.42C10.4988 18.6247 10.5854 18.8184 10.7327 18.9605C10.8801 19.1026 11.0767 19.182 11.2813 19.182C11.4859 19.182 11.6825 19.1026 11.8299 18.9605C11.9772 18.8184 12.0638 18.6247 12.0715 18.42V17.801H12.6899C12.7961 17.805 12.9021 17.7875 13.0015 17.7495C13.1008 17.7116 13.1915 17.6539 13.2681 17.5801C13.3447 17.5062 13.4056 17.4177 13.4472 17.3197C13.4888 17.2217 13.5103 17.1164 13.5103 17.0099C13.5103 16.9035 13.4888 16.7981 13.4472 16.7001C13.4056 16.6022 13.3447 16.5136 13.2681 16.4398C13.1915 16.3659 13.1008 16.3083 13.0015 16.2703C12.9021 16.2324 12.7961 16.2149 12.6899 16.2189Z" fill="white"/>
</g>
<defs>
</defs>
</svg>
