<svg viewBox="0 0 235 68" fill="none" xmlns="http://www.w3.org/2000/svg">
<path d="M169.526 47.9349C169.217 47.851 168.929 47.7039 168.68 47.5029L168.999 46.7871C169.224 46.9598 169.476 47.093 169.745 47.1808C170.031 47.2807 170.331 47.3321 170.633 47.3328C171.001 47.3328 171.276 47.2744 171.457 47.1556C171.54 47.109 171.609 47.0411 171.657 46.959C171.704 46.8769 171.73 46.7835 171.73 46.6885C171.731 46.6225 171.719 46.5569 171.693 46.4963C171.666 46.4358 171.627 46.3818 171.578 46.3381C171.466 46.24 171.335 46.1662 171.192 46.1216C171.037 46.07 170.824 46.0109 170.555 45.9444C170.244 45.8746 169.938 45.7848 169.639 45.6756C169.406 45.587 169.199 45.4421 169.035 45.2538C168.859 45.0353 168.77 44.7591 168.785 44.4786C168.782 44.2128 168.86 43.9525 169.007 43.7315C169.175 43.4918 169.409 43.3061 169.68 43.1969C170.029 43.0539 170.403 42.9853 170.78 42.9956C171.081 42.9953 171.38 43.0332 171.671 43.1083C171.94 43.1736 172.196 43.2838 172.428 43.4345L172.138 44.1493C171.925 44.0243 171.697 43.9269 171.459 43.8594C171.236 43.7944 171.005 43.7605 170.772 43.7587C170.409 43.7587 170.139 43.8201 169.963 43.943C169.88 43.9949 169.812 44.0672 169.766 44.1529C169.719 44.2385 169.696 44.3348 169.697 44.4323C169.695 44.4976 169.708 44.5626 169.734 44.6225C169.76 44.6824 169.8 44.7357 169.849 44.7786C169.962 44.8752 170.093 44.9478 170.235 44.992C170.391 45.0434 170.603 45.1028 170.872 45.1682C171.179 45.2358 171.482 45.3246 171.777 45.434C172.009 45.5242 172.216 45.6689 172.38 45.8558C172.557 46.0705 172.646 46.3435 172.632 46.621C172.634 46.8856 172.556 47.1448 172.408 47.364C172.239 47.6031 172.005 47.7877 171.733 47.8956C171.382 48.0382 171.005 48.1067 170.626 48.0969C170.254 48.0976 169.883 48.043 169.526 47.9349Z" fill="white"/>
<path d="M176.795 47.8201C176.683 47.9088 176.555 47.9739 176.417 48.0114C176.264 48.0543 176.105 48.0756 175.946 48.0748C175.531 48.0748 175.211 47.9661 174.984 47.7486C174.757 47.5312 174.645 47.215 174.645 46.8002V44.979H174.023V44.2742H174.645V43.4044H175.529V44.2682H176.541V44.9729H175.529V46.772C175.519 46.9247 175.567 47.0754 175.664 47.1939C175.715 47.2444 175.776 47.2835 175.843 47.3085C175.91 47.3335 175.982 47.3438 176.053 47.3389C176.231 47.3457 176.406 47.2905 176.548 47.1828L176.795 47.8201Z" fill="white"/>
<path d="M182.247 44.243V48.0255H181.405V47.5432C181.262 47.7146 181.08 47.8495 180.875 47.9369C180.658 48.0296 180.424 48.0765 180.188 48.0748C179.683 48.0748 179.286 47.9342 178.997 47.653C178.707 47.3717 178.562 46.9553 178.561 46.4035V44.243H179.446V46.2827C179.446 46.623 179.522 46.8767 179.675 47.0438C179.76 47.1304 179.862 47.1977 179.975 47.2411C180.088 47.2845 180.209 47.3031 180.33 47.2955C180.469 47.3024 180.608 47.2797 180.738 47.2291C180.868 47.1784 180.985 47.1009 181.083 47.0016C181.269 46.8049 181.362 46.5227 181.363 46.1549V44.242L182.247 44.243Z" fill="white"/>
<path d="M188.165 42.7701V48.0255H187.317V47.5321C187.173 47.7095 186.987 47.8479 186.775 47.9348C186.549 48.0267 186.307 48.0726 186.063 48.0698C185.722 48.0748 185.384 47.992 185.084 47.8291C184.796 47.6706 184.559 47.4335 184.401 47.1455C184.232 46.8338 184.147 46.4834 184.154 46.1287C184.146 45.7752 184.232 45.4261 184.401 45.1159C184.56 44.8293 184.797 44.5936 185.084 44.4363C185.384 44.273 185.722 44.1901 186.063 44.1957C186.298 44.1929 186.532 44.236 186.75 44.3225C186.955 44.4058 187.137 44.537 187.28 44.7051V42.7701H188.165ZM186.743 47.1717C186.914 47.074 187.053 46.9302 187.146 46.7569C187.243 46.5638 187.294 46.3503 187.294 46.1337C187.294 45.9171 187.243 45.7036 187.146 45.5105C187.053 45.3377 186.913 45.1944 186.743 45.0967C186.567 45.0009 186.37 44.9508 186.17 44.9508C185.97 44.9508 185.773 45.0009 185.597 45.0967C185.427 45.1944 185.287 45.3377 185.195 45.5105C185.097 45.7036 185.046 45.9171 185.046 46.1337C185.046 46.3503 185.097 46.5638 185.195 46.7569C185.287 46.9302 185.426 47.074 185.597 47.1717C185.773 47.2669 185.97 47.3167 186.17 47.3167C186.37 47.3167 186.567 47.2669 186.743 47.1717Z" fill="white"/>
<path d="M190.429 43.4667C190.378 43.4181 190.337 43.3594 190.308 43.2943C190.28 43.2292 190.266 43.1591 190.266 43.0882C190.266 43.0173 190.28 42.9472 190.308 42.8821C190.337 42.817 190.378 42.7583 190.429 42.7096C190.538 42.6079 190.682 42.553 190.831 42.5566C190.979 42.5526 191.123 42.6048 191.234 42.7026C191.286 42.7475 191.328 42.8035 191.356 42.8665C191.384 42.9295 191.398 42.998 191.396 43.0671C191.398 43.1399 191.385 43.2123 191.358 43.2798C191.33 43.3474 191.289 43.4086 191.238 43.4597C191.184 43.5128 191.121 43.5543 191.05 43.5819C190.98 43.6094 190.906 43.6223 190.83 43.6198C190.682 43.6232 190.538 43.5682 190.429 43.4667ZM190.387 44.243H191.271V48.0255H190.387V44.243Z" fill="white"/>
<path d="M194.158 47.8271C193.859 47.6688 193.609 47.4295 193.439 47.1365C193.27 46.83 193.182 46.4857 193.182 46.1357C193.182 45.7857 193.27 45.4415 193.439 45.135C193.611 44.8439 193.86 44.6062 194.158 44.4484C194.479 44.2855 194.834 44.2007 195.194 44.2007C195.555 44.2007 195.91 44.2855 196.231 44.4484C196.529 44.6058 196.778 44.8436 196.949 45.135C197.118 45.4413 197.207 45.7856 197.207 46.1357C197.207 46.4859 197.118 46.8302 196.949 47.1365C196.779 47.4296 196.53 47.669 196.231 47.8271C195.91 47.99 195.555 48.0748 195.194 48.0748C194.834 48.0748 194.479 47.99 194.158 47.8271ZM195.997 46.9905C196.203 46.7527 196.316 46.449 196.316 46.1347C196.316 45.8205 196.203 45.5167 195.997 45.279C195.893 45.1719 195.768 45.0876 195.629 45.0315C195.491 44.9753 195.342 44.9485 195.193 44.9528C195.044 44.9478 194.895 44.9743 194.756 45.0304C194.618 45.0866 194.492 45.1713 194.388 45.279C194.186 45.5179 194.074 45.8212 194.074 46.1347C194.074 46.4482 194.186 46.7515 194.388 46.9905C194.492 47.0982 194.618 47.1828 194.756 47.239C194.895 47.2952 195.044 47.3217 195.193 47.3167C195.342 47.3209 195.491 47.2941 195.629 47.238C195.768 47.1818 195.893 47.0976 195.997 46.9905Z" fill="white"/>
<path d="M199.387 47.954C199.136 47.8943 198.898 47.7922 198.683 47.6519L199.022 46.9784C199.211 47.1005 199.417 47.1925 199.634 47.2512C199.863 47.3176 200.1 47.3515 200.338 47.3519C200.866 47.3519 201.13 47.2126 201.13 46.9341C201.132 46.8723 201.113 46.8117 201.077 46.7617C201.04 46.7118 200.989 46.6754 200.929 46.6582C200.719 46.5878 200.502 46.5379 200.282 46.5092C200.024 46.4739 199.77 46.4194 199.521 46.3461C199.326 46.2856 199.15 46.1744 199.011 46.024C198.859 45.8467 198.782 45.617 198.796 45.3837C198.792 45.214 198.832 45.0461 198.91 44.8956C198.988 44.7451 199.104 44.6169 199.245 44.5229C199.544 44.3074 199.949 44.2 200.459 44.2007C200.721 44.2008 200.982 44.2305 201.237 44.2893C201.46 44.3343 201.675 44.4141 201.874 44.5259L201.534 45.1994C201.205 45.008 200.831 44.9099 200.452 44.9155C200.248 44.9037 200.044 44.9439 199.86 45.0323C199.801 45.0599 199.751 45.1034 199.716 45.1578C199.68 45.2122 199.661 45.2754 199.659 45.3404C199.656 45.4075 199.676 45.4737 199.715 45.5284C199.754 45.5831 199.81 45.6232 199.874 45.6424C200.091 45.7205 200.315 45.7765 200.543 45.8095C200.794 45.8458 201.043 45.8999 201.286 45.9716C201.478 46.0307 201.651 46.1382 201.789 46.2837C201.938 46.4561 202.013 46.6798 201.998 46.9069C202.001 47.0762 201.96 47.2434 201.879 47.3922C201.798 47.541 201.681 47.6665 201.538 47.7566C201.231 47.9687 200.814 48.0751 200.286 48.0758C199.982 48.076 199.679 48.035 199.387 47.954Z" fill="white"/>
<path d="M98.776 26.9988C98.785 27.82 98.6558 28.6368 98.3939 29.4151C98.1461 30.1402 97.7237 30.7931 97.1639 31.3159C96.6001 31.8474 95.8676 32.2619 94.9665 32.5592C94.0655 32.8566 92.9696 33.0056 91.679 33.0063H83.8348V38.5436H79.1081V21.0165H91.675C92.9663 21.0165 94.0621 21.1631 94.9625 21.4564C95.8629 21.7498 96.5954 22.1622 97.1599 22.6938C97.7184 23.2148 98.1408 23.8651 98.3899 24.5875C98.6535 25.3637 98.7841 26.179 98.776 26.9988ZM93.9981 27.0753C94.0065 26.717 93.9482 26.3602 93.8261 26.0232C93.7131 25.7317 93.5156 25.4806 93.2589 25.3024C92.9468 25.0952 92.5956 24.9541 92.2271 24.8876C91.7104 24.7899 91.185 24.745 90.6592 24.7537H83.8257V29.2691H90.6552C91.1799 29.2758 91.7042 29.2398 92.2231 29.1614C92.5888 29.1103 92.9401 28.9841 93.2549 28.7909C93.5096 28.6272 93.7077 28.3888 93.8221 28.1083C93.9454 27.7783 94.0038 27.4275 93.9941 27.0753H93.9981Z" fill="white"/>
<path d="M118.99 35.2262H109.235L107.592 38.5426H102.311L111.473 21.0165H116.748L125.91 38.5426H120.634L118.99 35.2262ZM110.924 31.8032H117.321L114.135 25.3487L110.924 31.8032Z" fill="white"/>
<path d="M131.908 38.5426V21.0165H136.635V38.5426H131.908Z" fill="white"/>
<path d="M167.506 38.5426V26.2336L161.008 38.5426H156.472L149.973 26.2336V38.5426H145.246V21.0165H151.667L158.739 34.2829L165.811 21.0165H172.208V38.5426H167.506Z" fill="white"/>
<path d="M194.885 35.2262H185.125L183.482 38.5426H178.206L187.368 21.0165H192.644L201.804 38.5426H196.527L194.885 35.2262ZM186.82 31.8032H193.217L190.031 25.3487L186.82 31.8032Z" fill="white"/>
<path d="M47.6036 14.2149C40.3336 14.381 34.2885 19.0213 32.3174 25.3902C32.0197 24.175 31.7633 20.4036 32.3677 19.3324C33.8551 16.6916 39.0172 12.8034 45.5108 13.0077C47.0626 13.0551 50.1118 13.6591 50.4266 14.2713C50.4658 14.3468 48.8879 14.1857 47.6036 14.2149Z" fill="white"/>
<path d="M70.8858 38.4449L70.8606 38.4348C70.8495 38.4278 70.8372 38.4227 70.8244 38.4197C70.8101 38.4182 70.7959 38.4152 70.7822 38.4107C70.7658 38.4096 70.7493 38.4096 70.7329 38.4107C70.7168 38.4107 70.7007 38.4107 70.6816 38.4107H70.6273H70.57C70.5519 38.4107 70.5308 38.4187 70.5107 38.4207C70.4704 38.4308 70.4312 38.4359 70.39 38.4489C70.3052 38.4738 70.2222 38.5044 70.1416 38.5406C70.0566 38.5759 69.974 38.6165 69.8942 38.6624C69.81 38.7061 69.7281 38.7541 69.6488 38.8063L69.4105 38.9654L69.1781 39.1426L69.0615 39.2322L68.9499 39.3269L68.7246 39.5181C68.5757 39.649 68.435 39.788 68.2881 39.9209L67.8436 40.3387C67.6948 40.4776 67.5419 40.6075 67.385 40.7414C66.7647 41.2662 66.1032 41.7403 65.4069 42.1589C65.0619 42.3704 64.7029 42.5616 64.3449 42.7439C63.9841 42.9254 63.613 43.0857 63.2336 43.2241C63.6013 43.061 63.9592 42.8768 64.3057 42.6724C64.6516 42.471 64.9915 42.2556 65.3184 42.023C65.9746 41.566 66.593 41.0569 67.1678 40.5008C67.3096 40.3598 67.4544 40.2239 67.5892 40.0779L67.9985 39.639C68.1383 39.491 68.274 39.3369 68.4189 39.193L68.6401 38.9775L68.7517 38.8698L68.8684 38.7691L69.1027 38.5677L69.3551 38.3754C69.4398 38.3112 69.5278 38.2514 69.6186 38.1962C69.7101 38.1355 69.8051 38.0803 69.9032 38.0311C70.0533 37.9573 70.209 37.8957 70.3689 37.8469C70.3722 37.8456 70.3752 37.8435 70.3775 37.8408C70.3799 37.838 70.3815 37.8348 70.3822 37.8312C70.3829 37.8277 70.3827 37.824 70.3816 37.8206C70.3805 37.8172 70.3785 37.8141 70.3759 37.8116C68.3133 35.8857 67.2523 38.0684 63.7827 38.1137C63.4015 38.1186 63.0204 38.0968 62.6423 38.0482L62.5839 38.0412C60.3111 37.7392 57.4771 36.522 56.1678 35.5242C55.4759 34.9937 54.9257 34.5275 54.5255 34.2819C54.3908 34.1855 54.2335 34.1255 54.0689 34.1077C53.3752 34.1189 52.6828 34.171 51.9952 34.2637L43.1192 34.2285C42.8355 34.2293 42.555 34.2888 42.2954 34.4033C42.0358 34.5178 41.8026 34.6849 41.6106 34.894C41.459 35.0624 41.2798 35.2037 41.0807 35.3118C40.7773 35.471 40.4386 35.5506 40.0961 35.5434C39.5782 35.5434 38.829 35.3098 38.2034 34.2003C37.8193 33.5167 37.5316 32.5723 37.3707 31.4669C37.1196 29.6336 37.2018 27.7699 37.6131 25.9658C38.1159 23.8828 39.0391 22.5116 40.2711 22.0052C42.1406 21.234 43.451 21.8622 44.7162 22.4683C45.7218 22.9525 46.7667 23.4529 48.2943 23.4529C49.822 23.4529 50.8648 22.9495 51.8735 22.4683C53.1387 21.8642 54.4471 21.234 56.3186 22.0052C57.5516 22.5085 58.4687 23.8828 58.9766 25.9658C59.3886 27.7698 59.4704 29.6337 59.218 31.4669C59.0581 32.5744 58.7704 33.5167 58.3853 34.2003C58.2328 34.4788 58.0422 34.7347 57.8191 34.9604C57.7906 34.9866 57.7684 35.0188 57.754 35.0547C57.7396 35.0906 57.7334 35.1292 57.7358 35.1678C57.7382 35.2064 57.7492 35.2439 57.7679 35.2777C57.7867 35.3115 57.8128 35.3407 57.8442 35.3631C58.7091 35.9843 60.1884 36.6337 61.5451 37.0203C61.8468 37.1079 62.1485 37.1794 62.4351 37.2358L62.4623 37.2428C62.6272 37.274 62.7891 37.3032 62.941 37.3244L62.946 37.3153L63.0023 37.3213C64.0144 37.4097 65.0341 37.328 66.0193 37.0797C65.6653 34.8426 64.7371 32.8583 64.3871 32.3035C64.3567 32.25 64.3196 32.2006 64.2765 32.1565C63.9168 32.6974 63.459 33.1659 62.9269 33.5379C63.9959 31.9834 64.6858 31.5464 64.3469 28.8905C64.0031 25.553 62.6279 22.406 60.4127 19.8881C58.1976 17.3702 55.2529 15.6069 51.9892 14.8439L51.9198 14.8278L51.7539 14.7905C51.6704 14.7734 51.5879 14.7553 51.5044 14.7392L51.2027 14.6818L51.1555 14.6738C51.0479 14.6546 50.9383 14.6365 50.8286 14.6194C50.7542 14.6083 50.6788 14.5962 50.6034 14.5872C50.5279 14.5781 50.4696 14.568 50.4022 14.56L50.2011 14.5348C50.0663 14.5197 49.9306 14.5066 49.7988 14.4935L49.5977 14.4764C49.1854 14.4442 48.769 14.4281 48.3486 14.4281C45.9283 14.4231 43.5383 14.9673 41.3582 16.0198C41.1826 16.1044 41.0082 16.1927 40.8353 16.2846C40.7206 16.346 40.607 16.4084 40.4923 16.4719L40.3465 16.5554C40.0482 16.7266 39.7548 16.9078 39.4665 17.0991L39.2805 17.228C39.2212 17.2682 39.1618 17.3085 39.1035 17.3508C39.0452 17.3931 38.9778 17.4394 38.9154 17.4847C37.7116 18.3557 36.6337 19.389 35.7124 20.5554C35.7194 20.5443 35.7244 20.5332 35.7315 20.5222C34.6501 21.8801 33.7953 23.4043 33.2002 25.0356H33.2143C33.2093 25.0477 33.2052 25.0628 33.2002 25.0758C33.1952 25.0889 33.171 25.1272 33.1529 25.1665C33.1163 25.2497 33.0867 25.3359 33.0644 25.4242C33.0534 25.4645 33.0433 25.5098 33.0343 25.5571C31.7174 29.6228 32.067 34.0456 34.0062 37.8535C35.9453 41.6613 39.3154 44.5425 43.3756 45.8639C45.5529 42.4902 48.8233 40.7464 51.7438 39.5443C48.3024 41.5881 48.5448 43.5392 49.6128 45.3092C49.0023 44.9427 47.876 43.2956 47.876 43.2956C47.876 43.2956 46.3112 43.8121 44.5713 46.2012C44.5583 46.2193 44.5452 46.2364 44.5331 46.2545C44.0757 46.8947 43.6659 47.5677 43.3072 48.2681C42.7883 53.2396 51.2571 55.7404 50.0995 54.0933C48.942 52.4462 50.9875 46.8193 50.9875 46.8193C50.9875 46.8193 51.8977 48.4735 55.9234 48.4503C59.9491 48.4272 64.906 46.5253 67.0622 45.0897C68.265 44.2873 72.0554 40.686 70.8858 38.4449ZM59.9099 41.8176C59.7398 41.9091 59.5445 41.9421 59.3539 41.9118C59.1633 41.8814 58.9879 41.7893 58.8546 41.6495C58.7213 41.5097 58.6375 41.3301 58.616 41.138C58.5945 40.946 58.6366 40.7522 58.7357 40.5864C58.8348 40.4206 58.9855 40.2919 59.1647 40.2201C59.3439 40.1483 59.5417 40.1373 59.7277 40.1888C59.9138 40.2404 60.0778 40.3516 60.1946 40.5054C60.3114 40.6592 60.3746 40.8472 60.3745 41.0404C60.3752 41.1681 60.3474 41.2943 60.293 41.4099C60.213 41.5839 60.0785 41.7271 59.9099 41.8176Z" fill="white"/>
<path d="M60.3724 41.0414C60.3726 41.2165 60.3209 41.3877 60.2239 41.5334C60.1268 41.6791 59.9888 41.7927 59.8272 41.8598C59.6656 41.9269 59.4878 41.9445 59.3162 41.9104C59.1447 41.8763 58.987 41.792 58.8634 41.6682C58.7397 41.5443 58.6555 41.3866 58.6214 41.2148C58.5873 41.043 58.6049 40.865 58.6719 40.7033C58.739 40.5415 58.8524 40.4033 58.9979 40.3062C59.1435 40.209 59.3145 40.1572 59.4894 40.1574C59.7236 40.1574 59.9482 40.2506 60.1138 40.4163C60.2794 40.5821 60.3724 40.807 60.3724 41.0414Z" fill="black"/>
<path d="M53.0663 29.096C53.4612 29.096 53.7813 28.7755 53.7813 28.3801C53.7813 27.9848 53.4612 27.6643 53.0663 27.6643C52.6714 27.6643 52.3512 27.9848 52.3512 28.3801C52.3512 28.7755 52.6714 29.096 53.0663 29.096Z" fill="white"/>
<path d="M55.6136 29.096C56.0085 29.096 56.3287 28.7755 56.3287 28.3801C56.3287 27.9848 56.0085 27.6643 55.6136 27.6643C55.2187 27.6643 54.8986 27.9848 54.8986 28.3801C54.8986 28.7755 55.2187 29.096 55.6136 29.096Z" fill="white"/>
<path d="M54.3394 27.8213C54.7343 27.8213 55.0544 27.5008 55.0544 27.1055C55.0544 26.7102 54.7343 26.3897 54.3394 26.3897C53.9445 26.3897 53.6244 26.7102 53.6244 27.1055C53.6244 27.5008 53.9445 27.8213 54.3394 27.8213Z" fill="white"/>
<path d="M54.3394 30.3715C54.7343 30.3715 55.0544 30.051 55.0544 29.6557C55.0544 29.2604 54.7343 28.9399 54.3394 28.9399C53.9445 28.9399 53.6244 29.2604 53.6244 29.6557C53.6244 30.051 53.9445 30.3715 54.3394 30.3715Z" fill="white"/>
<path d="M43.4741 27.6653H42.915V27.1055C42.9186 27.0093 42.9028 26.9134 42.8685 26.8235C42.8342 26.7335 42.7821 26.6514 42.7154 26.5821C42.6487 26.5128 42.5687 26.4576 42.4803 26.4199C42.3918 26.3823 42.2966 26.3629 42.2004 26.3629C42.1043 26.3629 42.0091 26.3823 41.9206 26.4199C41.8321 26.4576 41.7521 26.5128 41.6854 26.5821C41.6187 26.6514 41.5667 26.7335 41.5324 26.8235C41.4981 26.9134 41.4823 27.0093 41.4859 27.1055V27.6653H40.9268C40.7419 27.6722 40.5669 27.7506 40.4386 27.884C40.3102 28.0174 40.2385 28.1954 40.2385 28.3806C40.2385 28.5658 40.3102 28.7438 40.4386 28.8772C40.5669 29.0106 40.7419 29.089 40.9268 29.0959H41.4859V29.6557C41.4928 29.8408 41.5712 30.0159 41.7044 30.1444C41.8376 30.2729 42.0154 30.3447 42.2004 30.3447C42.3854 30.3447 42.5632 30.2729 42.6965 30.1444C42.8297 30.0159 42.908 29.8408 42.915 29.6557V29.0959H43.4741C43.5702 29.0995 43.666 29.0837 43.7559 29.0494C43.8457 29.0151 43.9277 28.963 43.997 28.8962C44.0662 28.8294 44.1213 28.7493 44.1589 28.6607C44.1966 28.5721 44.216 28.4769 44.216 28.3806C44.216 28.2843 44.1966 28.1891 44.1589 28.1005C44.1213 28.0119 44.0662 27.9318 43.997 27.865C43.9277 27.7983 43.8457 27.7462 43.7559 27.7118C43.666 27.6775 43.5702 27.6617 43.4741 27.6653Z" fill="white"/>
</svg>
